<?xml version="1.0" encoding="UTF-8"?> <svg xmlns="http://www.w3.org/2000/svg" id="Слой_1" data-name="Слой 1" viewBox="0 0 749.5 731.59"><defs><style>.cls-1{stroke:#fff;stroke-miterlimit:10;stroke-width:10px;}.cls-2{fill:#fff;}</style></defs><path d="M1133,286s-24.83-89-173-89c0,0-26.48-128.43-145.65-124.52S680.31,194.09,680.31,194.09s-155.58-51.82-197.79,62.57,8.28,206.3,72,207.28,513.82,3.4,513.82,3.4S1190.08,383.77,1133,286Z" transform="translate(-467 -72.41)"></path><path class="cls-1" d="M1211.06,644.9h-420v104c29,65.21,393,68.32,420,0Z" transform="translate(-467 -72.41)"></path><path class="cls-1" d="M1211.5,546h-420V650c29,65.21,393,68.32,420,0Z" transform="translate(-467 -72.41)"></path><path class="cls-1" d="M1211.5,440.42h-420v104c29,65.21,393,68.31,420,0Z" transform="translate(-467 -72.41)"></path><path class="cls-1" d="M1211.5,338h-420V442c29,65.21,393,68.32,420,0Z" transform="translate(-467 -72.41)"></path><ellipse class="cls-1" cx="535" cy="264.76" rx="209.5" ry="56.67"></ellipse><ellipse class="cls-2" cx="362.5" cy="344.72" rx="9.5" ry="14.75"></ellipse><ellipse class="cls-2" cx="362.5" cy="447.19" rx="9.5" ry="14.75"></ellipse><ellipse class="cls-2" cx="362.5" cy="548.11" rx="9.5" ry="14.75"></ellipse><ellipse class="cls-2" cx="362.5" cy="655.24" rx="9.5" ry="14.75"></ellipse></svg> 